<mxfile host="app.diagrams.net" modified="2021-07-20T14:58:39.616Z" agent="5.0 (Macintosh)" etag="j56WWdxFV5pxk8_V8YGG" version="14.9.0" type="github">
  <diagram name="Page-1" id="e7e014a7-5840-1c2e-5031-d8a46d1fe8dd">
    <mxGraphModel dx="1186" dy="671" grid="1" gridSize="10" guides="1" tooltips="1" connect="1" arrows="1" fold="1" page="1" pageScale="1" pageWidth="1169" pageHeight="826" background="none" math="0" shadow="0">
      <root>
        <mxCell id="0" />
        <mxCell id="1" parent="0" />
        <mxCell id="2" value="Farmer" style="swimlane;whiteSpace=wrap" parent="1" vertex="1">
          <mxGeometry x="164.5" y="128" width="195.5" height="570" as="geometry" />
        </mxCell>
        <mxCell id="5" value="" style="ellipse;shape=startState;fillColor=#000000;strokeColor=#ff0000;" parent="2" vertex="1">
          <mxGeometry x="82.75" y="52" width="30" height="30" as="geometry" />
        </mxCell>
        <mxCell id="6" value="" style="edgeStyle=elbowEdgeStyle;elbow=horizontal;verticalAlign=bottom;endArrow=open;endSize=8;endFill=1;rounded=0" parent="2" source="5" target="7" edge="1">
          <mxGeometry x="82.75" y="52" as="geometry">
            <mxPoint x="97.75" y="122" as="targetPoint" />
          </mxGeometry>
        </mxCell>
        <mxCell id="7" value="Harvest Item" style="" parent="2" vertex="1">
          <mxGeometry x="42.75" y="122" width="110" height="50" as="geometry" />
        </mxCell>
        <mxCell id="8" value="Process Item" style="" parent="2" vertex="1">
          <mxGeometry x="42.75" y="232" width="110" height="50" as="geometry" />
        </mxCell>
        <mxCell id="9" value="" style="endArrow=open;endFill=1;rounded=0" parent="2" source="7" target="8" edge="1">
          <mxGeometry relative="1" as="geometry" />
        </mxCell>
        <mxCell id="10" value="Pack Item" style="" parent="2" vertex="1">
          <mxGeometry x="42.75" y="337" width="110" height="50" as="geometry" />
        </mxCell>
        <mxCell id="11" value="" style="endArrow=open;endFill=1;rounded=0" parent="2" source="8" target="10" edge="1">
          <mxGeometry relative="1" as="geometry" />
        </mxCell>
        <mxCell id="ctm5kPi-ZFSd9FwRbIcC-47" value="Sell Item" style="" vertex="1" parent="2">
          <mxGeometry x="42.75" y="442" width="110" height="50" as="geometry" />
        </mxCell>
        <mxCell id="ctm5kPi-ZFSd9FwRbIcC-48" value="" style="endArrow=open;endFill=1;rounded=0" edge="1" parent="2" target="ctm5kPi-ZFSd9FwRbIcC-47">
          <mxGeometry relative="1" as="geometry">
            <mxPoint x="97.75" y="387" as="sourcePoint" />
          </mxGeometry>
        </mxCell>
        <mxCell id="3" value="Distributor" style="swimlane;whiteSpace=wrap" parent="1" vertex="1">
          <mxGeometry x="360" y="128" width="210" height="570" as="geometry" />
        </mxCell>
        <mxCell id="15" value="Buy Item" style="" parent="3" vertex="1">
          <mxGeometry x="60" y="122" width="110" height="50" as="geometry" />
        </mxCell>
        <mxCell id="16" value="Ship Item" style="" parent="3" vertex="1">
          <mxGeometry x="60" y="232" width="110" height="50" as="geometry" />
        </mxCell>
        <mxCell id="17" value="" style="endArrow=open;endFill=1;rounded=0" parent="3" source="15" target="16" edge="1">
          <mxGeometry relative="1" as="geometry" />
        </mxCell>
        <mxCell id="4" value="Retailer" style="swimlane;whiteSpace=wrap" parent="1" vertex="1">
          <mxGeometry x="570" y="128" width="210" height="570" as="geometry" />
        </mxCell>
        <mxCell id="ctm5kPi-ZFSd9FwRbIcC-51" value="Receive Item" style="" vertex="1" parent="4">
          <mxGeometry x="40" y="122" width="110" height="50" as="geometry" />
        </mxCell>
        <mxCell id="ctm5kPi-ZFSd9FwRbIcC-41" value="Consumer" style="swimlane;whiteSpace=wrap;startSize=23;" vertex="1" parent="1">
          <mxGeometry x="780" y="128" width="220" height="570" as="geometry" />
        </mxCell>
        <mxCell id="ctm5kPi-ZFSd9FwRbIcC-60" value="" style="ellipse;shape=startState;fillColor=#000000;strokeColor=#ff0000;" vertex="1" parent="ctm5kPi-ZFSd9FwRbIcC-41">
          <mxGeometry x="90" y="285" width="30" height="30" as="geometry" />
        </mxCell>
        <mxCell id="ctm5kPi-ZFSd9FwRbIcC-62" value="Purchase Item" style="" vertex="1" parent="ctm5kPi-ZFSd9FwRbIcC-41">
          <mxGeometry x="50" y="122" width="110" height="50" as="geometry" />
        </mxCell>
        <mxCell id="ctm5kPi-ZFSd9FwRbIcC-67" value="" style="edgeStyle=elbowEdgeStyle;elbow=horizontal;verticalAlign=bottom;endArrow=open;endSize=8;endFill=1;rounded=0;entryX=0.5;entryY=0;entryDx=0;entryDy=0;exitX=0.5;exitY=1;exitDx=0;exitDy=0;" edge="1" parent="ctm5kPi-ZFSd9FwRbIcC-41" source="ctm5kPi-ZFSd9FwRbIcC-62" target="ctm5kPi-ZFSd9FwRbIcC-60">
          <mxGeometry x="-500" y="-86" as="geometry">
            <mxPoint x="60" y="157" as="targetPoint" />
            <mxPoint x="-50" y="157" as="sourcePoint" />
            <Array as="points" />
          </mxGeometry>
        </mxCell>
        <mxCell id="ctm5kPi-ZFSd9FwRbIcC-63" value="" style="endArrow=classic;html=1;exitX=1;exitY=0.5;exitDx=0;exitDy=0;entryX=0;entryY=0.5;entryDx=0;entryDy=0;" edge="1" parent="1" source="ctm5kPi-ZFSd9FwRbIcC-47" target="15">
          <mxGeometry width="50" height="50" relative="1" as="geometry">
            <mxPoint x="640" y="480" as="sourcePoint" />
            <mxPoint x="380" y="275" as="targetPoint" />
            <Array as="points">
              <mxPoint x="380" y="595" />
              <mxPoint x="380" y="275" />
            </Array>
          </mxGeometry>
        </mxCell>
        <mxCell id="ctm5kPi-ZFSd9FwRbIcC-66" value="" style="endArrow=classic;html=1;exitX=1;exitY=0.5;exitDx=0;exitDy=0;entryX=0.5;entryY=1;entryDx=0;entryDy=0;" edge="1" parent="1" source="16" target="ctm5kPi-ZFSd9FwRbIcC-51">
          <mxGeometry width="50" height="50" relative="1" as="geometry">
            <mxPoint x="580" y="640" as="sourcePoint" />
            <mxPoint x="682.75" y="320" as="targetPoint" />
            <Array as="points">
              <mxPoint x="620" y="385" />
              <mxPoint x="665" y="385" />
            </Array>
          </mxGeometry>
        </mxCell>
        <mxCell id="ctm5kPi-ZFSd9FwRbIcC-50" value="" style="edgeStyle=elbowEdgeStyle;elbow=horizontal;verticalAlign=bottom;endArrow=open;endSize=8;endFill=1;rounded=0;entryX=0;entryY=0.5;entryDx=0;entryDy=0;exitX=1;exitY=0.5;exitDx=0;exitDy=0;" edge="1" parent="1" source="ctm5kPi-ZFSd9FwRbIcC-51" target="ctm5kPi-ZFSd9FwRbIcC-62">
          <mxGeometry x="270" y="32" as="geometry">
            <mxPoint x="285" y="102" as="targetPoint" />
            <mxPoint x="665" y="210" as="sourcePoint" />
            <Array as="points" />
          </mxGeometry>
        </mxCell>
      </root>
    </mxGraphModel>
  </diagram>
</mxfile>
